<?xml version="1.0" standalone="no"?>
<!DOCTYPE svg PUBLIC "-//W3C//DTD SVG 20010904//EN"
 "http://www.w3.org/TR/2001/REC-SVG-20010904/DTD/svg10.dtd">
<svg version="1.0" xmlns="http://www.w3.org/2000/svg"
 width="1200.000000pt" height="1200.000000pt" viewBox="0 0 1200.000000 1200.000000"
 preserveAspectRatio="xMidYMid meet">

<g transform="translate(0.000000,1200.000000) scale(0.100000,-0.100000)"
fill="#000000" stroke="none">
<path d="M1200 6450 l0 -1950 1800 0 1800 0 0 75 0 75 -1725 0 -1725 0 0 1800
0 1800 4650 0 4650 0 0 -1800 0 -1800 -1725 0 -1725 0 0 -75 0 -75 1800 0
1800 0 0 1950 0 1950 -4800 0 -4800 0 0 -1950z"/>
<path d="M4675 7061 c-64 -27 -81 -110 -32 -158 61 -61 157 -20 157 67 0 67
-67 116 -125 91z"/>
<path d="M2620 7010 c0 -13 7 -20 20 -20 11 0 36 -6 54 -14 l34 -14 -4 -164
c-7 -240 -22 -532 -29 -550 -7 -17 -92 -58 -119 -58 -9 0 -16 -9 -16 -20 0
-19 7 -20 180 -20 172 0 180 1 180 20 0 14 -9 21 -34 25 -18 4 -48 16 -66 27
l-33 19 7 182 c9 258 18 379 26 370 4 -4 69 -149 145 -321 75 -172 141 -315
146 -318 27 -17 52 29 164 308 65 161 119 295 121 297 12 13 16 -31 24 -253 6
-150 6 -256 0 -271 -6 -16 -22 -28 -50 -36 -28 -9 -40 -18 -40 -31 0 -17 12
-18 179 -18 99 0 182 4 185 8 8 13 -7 27 -41 41 -21 8 -36 24 -43 44 -6 18
-19 184 -28 369 -15 325 -15 338 3 358 10 11 29 20 42 20 16 0 23 6 23 20 0
19 -7 20 -138 20 l-139 0 -22 -81 c-20 -74 -159 -449 -180 -486 -7 -14 -10
-13 -16 8 -4 13 -59 140 -121 281 -63 142 -114 262 -114 268 0 6 -53 10 -150
10 -143 0 -150 -1 -150 -20z"/>
<path d="M6223 7020 c-120 -24 -229 -113 -290 -237 -38 -76 -38 -78 -38 -197
0 -115 2 -124 32 -188 53 -112 145 -197 265 -244 33 -13 103 -51 154 -84 142
-92 173 -104 263 -97 73 5 201 43 224 66 21 21 -6 30 -57 20 -76 -14 -167 5
-258 54 -43 23 -78 44 -78 47 0 3 21 14 48 24 69 29 146 111 189 201 31 66 37
89 41 169 7 148 -35 263 -133 355 -104 98 -230 137 -362 111z m176 -103 c46
-31 83 -94 106 -184 19 -74 20 -260 0 -332 -41 -155 -147 -218 -265 -158 -110
55 -177 261 -150 460 17 122 49 187 115 229 45 28 139 21 194 -15z"/>
<path d="M9170 6800 c-30 -27 -81 -64 -113 -81 -47 -25 -58 -35 -55 -52 3 -19
11 -22 51 -25 l47 -3 0 -182 c0 -170 2 -186 23 -227 29 -58 75 -85 147 -85 71
0 157 40 152 70 -5 27 -10 31 -24 17 -20 -20 -85 -15 -108 8 -22 22 -22 20
-22 235 0 80 1 150 1 155 1 6 31 10 70 10 63 0 69 2 75 23 12 45 10 47 -69 47
-53 0 -75 4 -76 13 0 6 -2 37 -2 67 -3 74 -23 76 -97 10z"/>
<path d="M4075 6733 c-101 -22 -183 -71 -210 -123 -29 -55 -4 -82 73 -82 42 0
72 29 72 71 0 34 38 71 72 71 43 0 68 -42 68 -114 l0 -61 -106 -33 c-90 -28
-114 -40 -153 -77 -45 -42 -46 -45 -46 -104 0 -53 4 -63 30 -91 55 -58 145
-63 237 -13 l49 27 15 -22 c25 -36 83 -47 142 -28 56 19 80 41 84 76 3 21 -1
23 -37 24 l-40 1 -5 180 c-6 189 -12 217 -58 258 -40 37 -123 54 -187 40z m75
-392 c0 -85 -6 -97 -56 -107 -47 -9 -84 26 -84 81 0 47 21 70 85 93 54 19 55
18 55 -67z"/>
<path d="M5423 6730 c-17 -4 -52 -19 -77 -34 l-46 -27 0 31 c0 19 -5 30 -14
30 -7 0 -68 -11 -134 -25 -66 -14 -123 -25 -126 -25 -3 0 -6 -9 -6 -19 0 -13
11 -23 36 -31 55 -18 64 -52 63 -222 -1 -180 -3 -188 -57 -206 -30 -10 -42
-19 -42 -33 0 -18 9 -19 180 -19 172 0 180 1 180 20 0 13 -14 25 -45 39 l-45
20 0 185 c0 180 1 185 22 200 32 23 100 20 131 -5 40 -30 48 -78 45 -239 l-3
-145 -42 -20 c-27 -12 -43 -26 -43 -37 0 -17 14 -18 180 -18 169 0 180 1 180
19 0 13 -14 24 -45 35 -25 10 -46 18 -46 19 -1 1 -4 85 -8 187 -6 172 -8 189
-31 235 -40 78 -113 108 -207 85z"/>
<path d="M7953 6726 c-98 -31 -157 -94 -188 -201 -41 -140 27 -291 161 -355
66 -33 170 -33 230 -2 78 40 136 105 119 132 -3 5 -29 -3 -57 -18 -43 -22 -65
-27 -125 -27 -69 0 -74 2 -108 35 -34 33 -55 81 -55 128 0 22 0 22 169 22 197
0 207 4 195 74 -27 163 -184 261 -341 212z m111 -68 c30 -13 69 -87 64 -120
-3 -22 -8 -23 -100 -26 l-98 -3 0 28 c0 15 9 47 19 69 28 61 62 77 115 52z"/>
<path d="M8586 6729 c-83 -20 -131 -66 -142 -137 -14 -87 28 -144 153 -212 98
-53 123 -76 123 -112 0 -39 -38 -62 -91 -55 -57 8 -89 32 -112 88 -18 42 -25
49 -50 49 l-28 0 6 -57 c12 -113 18 -120 129 -143 105 -21 212 5 266 66 26 31
30 42 30 96 0 96 -31 133 -176 206 -71 36 -96 62 -96 98 0 77 138 70 175 -9 9
-19 17 -39 17 -45 0 -11 23 -22 46 -22 10 0 14 14 14 54 0 85 -9 116 -39 127
-38 15 -180 20 -225 8z"/>
<path d="M7106 6715 c-27 -8 -81 -19 -120 -26 -39 -6 -74 -17 -78 -23 -14 -20
-8 -36 11 -36 11 0 32 -11 48 -24 27 -24 28 -26 34 -173 5 -123 9 -155 26
-188 34 -66 89 -105 147 -105 37 0 121 28 159 54 l36 25 3 -37 c3 -33 6 -37
28 -34 217 28 215 27 218 49 2 16 -4 22 -28 26 -20 5 -34 15 -40 32 -12 33
-12 296 0 390 5 39 5 73 1 78 -4 4 -43 -2 -87 -12 -43 -11 -103 -23 -131 -27
-46 -6 -53 -9 -53 -29 0 -17 7 -24 30 -28 54 -11 65 -44 65 -200 0 -134 -1
-139 -24 -158 -32 -26 -100 -25 -134 1 -43 34 -50 75 -46 273 3 115 0 181 -6
183 -5 1 -32 -4 -59 -11z"/>
<path d="M4660 6694 c-58 -12 -108 -23 -112 -23 -5 -1 -8 -9 -8 -19 0 -12 11
-21 32 -27 51 -15 58 -41 58 -220 0 -88 -3 -170 -6 -182 -4 -16 -19 -27 -45
-35 -25 -7 -39 -17 -39 -27 0 -15 20 -17 175 -17 155 0 175 2 175 17 0 9 -16
22 -39 31 -52 21 -55 36 -49 309 4 217 4 219 -16 218 -12 -1 -68 -12 -126 -25z"/>
<path d="M6083 5028 l-443 -443 -55 55 c-54 53 -55 55 -55 112 0 46 -4 59 -19
68 -28 14 -234 13 -249 -2 -8 -8 -12 -54 -12 -139 0 -143 -2 -139 79 -139 45
0 49 -2 136 -90 l90 -90 -90 -90 -90 -90 -125 0 c-85 0 -130 -4 -138 -12 -14
-14 -17 -454 -4 -476 7 -9 63 -12 248 -10 l239 3 3 130 3 130 92 93 92 92 92
-92 93 -93 0 -56 c0 -43 4 -58 16 -63 30 -12 239 -7 252 6 8 8 12 53 12 135 0
140 -2 143 -87 143 -45 0 -52 4 -96 48 -26 26 -47 52 -47 57 0 6 198 208 440
450 l440 440 0 167 c0 91 -3 173 -6 182 -5 14 -31 16 -188 16 l-181 0 -442
-442z m747 239 l0 -132 -435 -435 -435 -435 -55 55 -55 55 415 415 c300 300
415 421 415 438 0 12 -2 22 -4 22 -2 0 -12 3 -21 6 -12 5 -123 -99 -436 -412
l-419 -418 -55 54 -55 55 432 432 433 433 137 0 138 0 0 -133z m-1370 -539 c0
-46 -71 -118 -117 -118 l-33 0 0 68 c0 38 3 72 7 75 3 4 37 7 75 7 l68 0 0
-32z m383 -440 c114 -114 207 -211 207 -216 0 -5 -11 -19 -25 -32 l-26 -24
-279 279 -280 279 27 28 27 28 70 -67 c39 -37 164 -161 279 -275z m-190 -190
l-83 -83 -65 65 -65 65 82 82 83 83 65 -65 65 -65 -82 -82z m-201 -65 l78 -78
0 -102 0 -103 -180 0 -180 0 0 180 0 180 102 0 103 0 77 -77z m728 -68 l0 -75
-75 0 c-75 0 -75 0 -75 27 0 39 84 123 122 123 l28 0 0 -75z"/>
<path d="M5257 4023 c-4 -3 -7 -48 -7 -99 0 -75 3 -93 16 -98 29 -11 169 -7
182 6 13 13 17 153 6 182 -5 13 -23 16 -98 16 -51 0 -96 -3 -99 -7z m133 -98
c0 -34 -1 -35 -40 -35 -39 0 -40 1 -40 35 0 34 1 35 40 35 39 0 40 -1 40 -35z"/>
</g>
</svg>
